<svg width="199" height="35" viewBox="0 0 199 35" fill="none" xmlns="http://www.w3.org/2000/svg">
<path d="M8.70996 19.7867L34.9815 19.7867" stroke="black" stroke-width="3.28394"/>
<path d="M34.9815 6.65106L21.8457 6.65106C14.591 6.65106 8.70996 12.5321 8.70996 19.7868V19.7868C8.70996 27.0415 14.591 32.9226 21.8457 32.9226L34.9815 32.9226" stroke="#FF2225" stroke-width="3.28394"/>
<path d="M34.9815 13.2189L21.8457 13.2189C18.2184 13.2189 15.2778 16.1594 15.2778 19.7868V19.7868C15.2778 23.4141 18.2184 26.3546 21.8457 26.3546L34.9815 26.3546" stroke="black" stroke-width="3.28394"/>
<path d="M70.3468 24.1374C69.35 25.3411 68.1745 26.2627 66.8203 26.9022C65.4661 27.5228 63.9521 27.8332 62.2781 27.8332C60.7735 27.8332 59.3723 27.5605 58.0745 27.015C56.7956 26.4696 55.6859 25.7267 54.7455 24.7863C53.8051 23.8459 53.0622 22.7362 52.5168 21.4572C51.9713 20.1595 51.6986 18.7677 51.6986 17.2819C51.6986 15.796 51.9713 14.4136 52.5168 13.1347C53.0622 11.8369 53.8051 10.7179 54.7455 9.77747C55.6859 8.83707 56.7956 8.09415 58.0745 7.54872C59.3723 7.00329 60.7735 6.73057 62.2781 6.73057C63.8956 6.73057 65.3156 7.01269 66.5382 7.57693C67.7795 8.14117 68.8798 8.95932 69.839 10.0314L67.1588 12.6269C66.557 11.931 65.8611 11.3762 65.0711 10.9624C64.3 10.5486 63.3784 10.3417 62.3064 10.3417C61.366 10.3417 60.482 10.511 59.6544 10.8495C58.8269 11.1693 58.1028 11.6301 57.4821 12.2319C56.8802 12.8338 56.4006 13.5673 56.0433 14.4325C55.6859 15.2788 55.5073 16.2286 55.5073 17.2819C55.5073 18.3351 55.6859 19.2943 56.0433 20.1595C56.4006 21.0059 56.8802 21.73 57.4821 22.3318C58.1028 22.9337 58.8269 23.4039 59.6544 23.7424C60.482 24.0622 61.366 24.222 62.3064 24.222C63.4348 24.222 64.4317 23.9963 65.2968 23.5449C66.1808 23.0747 66.9613 22.4165 67.6384 21.5701L70.3468 24.1374ZM72.6774 13.5579H76.1474V15.4763H76.3731C76.5424 15.1378 76.7681 14.8274 77.0502 14.5453C77.3323 14.2632 77.6427 14.0187 77.9812 13.8118C78.3386 13.6049 78.7147 13.445 79.1097 13.3322C79.5235 13.2193 79.9279 13.1629 80.3228 13.1629C80.8118 13.1629 81.2256 13.2099 81.5641 13.304C81.9215 13.398 82.2224 13.5203 82.4669 13.6707L81.4795 17.028C81.2538 16.9151 80.9999 16.8305 80.7178 16.7741C80.4545 16.6988 80.1253 16.6612 79.7304 16.6612C79.2225 16.6612 78.7618 16.7646 78.348 16.9715C77.9342 17.1596 77.5768 17.4323 77.2759 17.7897C76.9938 18.147 76.7681 18.5702 76.5988 19.0592C76.4484 19.5294 76.3731 20.0466 76.3731 20.6109V27.3818H72.6774V13.5579ZM88.7862 26.7047L82.9745 13.5579H87.1781L90.6764 21.9369H90.8739L94.2311 13.5579H98.3501L89.689 33.4756H85.7111L88.7862 26.7047ZM99.9225 13.5579H103.393V15.2224H103.618C103.957 14.6393 104.483 14.1409 105.198 13.7272C105.913 13.3134 106.797 13.1065 107.85 13.1065C108.734 13.1065 109.571 13.2946 110.361 13.6707C111.17 14.0281 111.875 14.5359 112.477 15.1942C113.097 15.8337 113.586 16.6048 113.944 17.5076C114.301 18.4103 114.48 19.3978 114.48 20.4698C114.48 21.5419 114.301 22.5293 113.944 23.4321C113.586 24.3349 113.097 25.1154 112.477 25.7737C111.875 26.4132 111.17 26.921 110.361 27.2971C109.571 27.6545 108.734 27.8332 107.85 27.8332C106.797 27.8332 105.913 27.6263 105.198 27.2125C104.483 26.7987 103.957 26.3003 103.618 25.7173H103.393L103.618 27.6921V33.4756H99.9225V13.5579ZM107.088 24.4195C107.577 24.4195 108.038 24.3255 108.471 24.1374C108.922 23.9493 109.317 23.686 109.656 23.3475C109.994 23.0089 110.267 22.5951 110.474 22.1061C110.681 21.6171 110.784 21.0717 110.784 20.4698C110.784 19.868 110.681 19.3225 110.474 18.8335C110.267 18.3445 109.994 17.9307 109.656 17.5922C109.317 17.2537 108.922 16.9903 108.471 16.8023C108.038 16.6142 107.577 16.5201 107.088 16.5201C106.599 16.5201 106.129 16.6142 105.678 16.8023C105.245 16.9715 104.86 17.2254 104.521 17.564C104.182 17.9025 103.91 18.3163 103.703 18.8053C103.496 19.2943 103.393 19.8492 103.393 20.4698C103.393 21.0905 103.496 21.6453 103.703 22.1343C103.91 22.6233 104.182 23.0371 104.521 23.3757C104.86 23.7142 105.245 23.9775 105.678 24.1656C106.129 24.3349 106.599 24.4195 107.088 24.4195ZM117.814 16.7176H115.388V13.5579H117.814V9.32608H121.51V13.5579H124.895V16.7176H121.51V22.0779C121.51 22.3976 121.538 22.6986 121.594 22.9807C121.669 23.244 121.801 23.4697 121.989 23.6578C122.252 23.9587 122.629 24.1092 123.118 24.1092C123.437 24.1092 123.691 24.081 123.879 24.0245C124.067 23.9493 124.246 23.8553 124.415 23.7424L125.459 26.9868C125.027 27.1937 124.556 27.3442 124.049 27.4382C123.56 27.551 123.014 27.6075 122.412 27.6075C121.716 27.6075 121.086 27.504 120.522 27.2971C119.977 27.0714 119.516 26.7705 119.14 26.3944C118.256 25.548 117.814 24.3443 117.814 22.7832V16.7176ZM134.021 13.1065C135.093 13.1065 136.071 13.2946 136.955 13.6707C137.858 14.0281 138.629 14.5359 139.269 15.1942C139.927 15.8337 140.435 16.6048 140.792 17.5076C141.168 18.4103 141.356 19.3978 141.356 20.4698C141.356 21.5419 141.168 22.5293 140.792 23.4321C140.435 24.3349 139.927 25.1154 139.269 25.7737C138.629 26.4132 137.858 26.921 136.955 27.2971C136.071 27.6545 135.093 27.8332 134.021 27.8332C132.949 27.8332 131.962 27.6545 131.059 27.2971C130.175 26.921 129.404 26.4132 128.745 25.7737C128.106 25.1154 127.598 24.3349 127.222 23.4321C126.865 22.5293 126.686 21.5419 126.686 20.4698C126.686 19.3978 126.865 18.4103 127.222 17.5076C127.598 16.6048 128.106 15.8337 128.745 15.1942C129.404 14.5359 130.175 14.0281 131.059 13.6707C131.962 13.2946 132.949 13.1065 134.021 13.1065ZM134.021 24.4195C134.491 24.4195 134.943 24.3349 135.375 24.1656C135.827 23.9775 136.222 23.7142 136.56 23.3757C136.899 23.0371 137.162 22.6233 137.35 22.1343C137.557 21.6453 137.66 21.0905 137.66 20.4698C137.66 19.8492 137.557 19.2943 137.35 18.8053C137.162 18.3163 136.899 17.9025 136.56 17.564C136.222 17.2254 135.827 16.9715 135.375 16.8023C134.943 16.6142 134.491 16.5201 134.021 16.5201C133.532 16.5201 133.071 16.6142 132.639 16.8023C132.206 16.9715 131.821 17.2254 131.482 17.564C131.143 17.9025 130.871 18.3163 130.664 18.8053C130.476 19.2943 130.382 19.8492 130.382 20.4698C130.382 21.0905 130.476 21.6453 130.664 22.1343C130.871 22.6233 131.143 23.0371 131.482 23.3757C131.821 23.7142 132.206 23.9775 132.639 24.1656C133.071 24.3349 133.532 24.4195 134.021 24.4195Z" fill="#FF2225"/>
<path d="M147.991 10.7931V15.4763H156.088V19.0874H147.991V23.7706H156.991V27.3818H144.182V7.18196H156.991V10.7931H147.991ZM168.148 25.9147H167.922C167.489 26.4414 166.963 26.8928 166.342 27.2689C165.74 27.6451 164.96 27.8332 164.001 27.8332C163.286 27.8332 162.609 27.7109 161.969 27.4664C161.349 27.2407 160.803 26.921 160.333 26.5072C159.863 26.0934 159.496 25.595 159.233 25.012C158.969 24.4289 158.838 23.7894 158.838 23.0935C158.838 22.3788 158.979 21.7394 159.261 21.1751C159.543 20.5921 159.938 20.0937 160.446 19.6799C160.954 19.2661 161.546 18.9558 162.223 18.7489C162.919 18.5232 163.671 18.4103 164.48 18.4103C165.383 18.4103 166.126 18.4856 166.709 18.636C167.292 18.7677 167.772 18.9088 168.148 19.0592V18.636C168.148 17.9025 167.856 17.3007 167.273 16.8305C166.69 16.3415 165.966 16.097 165.101 16.097C163.822 16.097 162.74 16.633 161.856 17.705L159.176 15.8713C160.643 14.0281 162.646 13.1065 165.185 13.1065C167.33 13.1065 168.966 13.6143 170.094 14.6299C171.223 15.6268 171.787 17.1126 171.787 19.0874V27.3818H168.148V25.9147ZM168.148 21.7676C167.715 21.5607 167.264 21.4008 166.794 21.288C166.342 21.1563 165.844 21.0905 165.298 21.0905C164.414 21.0905 163.728 21.288 163.239 21.6829C162.769 22.0591 162.534 22.5293 162.534 23.0935C162.534 23.6578 162.759 24.1092 163.211 24.4477C163.681 24.7863 164.217 24.9555 164.819 24.9555C165.308 24.9555 165.759 24.8709 166.173 24.7016C166.587 24.5136 166.935 24.2785 167.217 23.9963C167.518 23.6954 167.743 23.3569 167.894 22.9807C168.063 22.5857 168.148 22.1814 168.148 21.7676ZM175.974 16.7176H173.547V13.5579H175.974V9.32608H179.669V13.5579H183.055V16.7176H179.669V22.0779C179.669 22.3976 179.697 22.6986 179.754 22.9807C179.829 23.244 179.961 23.4697 180.149 23.6578C180.412 23.9587 180.788 24.1092 181.277 24.1092C181.597 24.1092 181.851 24.081 182.039 24.0245C182.227 23.9493 182.406 23.8553 182.575 23.7424L183.619 26.9868C183.186 27.1937 182.716 27.3442 182.208 27.4382C181.719 27.551 181.174 27.6075 180.572 27.6075C179.876 27.6075 179.246 27.504 178.682 27.2971C178.136 27.0714 177.676 26.7705 177.299 26.3944C176.415 25.548 175.974 24.3443 175.974 22.7832V16.7176ZM191.522 27.8332C190.619 27.8332 189.811 27.7203 189.096 27.4946C188.4 27.2689 187.789 26.9774 187.262 26.6201C186.754 26.2439 186.322 25.8207 185.964 25.3505C185.607 24.8615 185.334 24.3725 185.146 23.8835L188.447 22.4729C188.767 23.1876 189.19 23.7236 189.717 24.081C190.262 24.4195 190.864 24.5888 191.522 24.5888C192.199 24.5888 192.735 24.4665 193.13 24.222C193.525 23.9775 193.723 23.686 193.723 23.3475C193.723 22.9713 193.553 22.6704 193.215 22.4447C192.895 22.2002 192.331 21.9839 191.522 21.7958L189.575 21.3726C189.143 21.2786 188.691 21.1281 188.221 20.9212C187.77 20.7143 187.356 20.451 186.98 20.1313C186.604 19.8115 186.293 19.426 186.049 18.9746C185.804 18.5232 185.682 17.9966 185.682 17.3947C185.682 16.7176 185.823 16.1158 186.105 15.5891C186.406 15.0625 186.811 14.6205 187.318 14.2632C187.826 13.887 188.419 13.6049 189.096 13.4168C189.792 13.2099 190.535 13.1065 191.325 13.1065C192.641 13.1065 193.817 13.3698 194.851 13.8964C195.886 14.4042 196.647 15.2224 197.136 16.3509L193.948 17.6486C193.685 17.1032 193.299 16.7082 192.792 16.4637C192.284 16.2192 191.776 16.097 191.268 16.097C190.742 16.097 190.281 16.2098 189.886 16.4355C189.491 16.6424 189.293 16.9151 189.293 17.2537C189.293 17.5734 189.453 17.8273 189.773 18.0154C190.111 18.2035 190.563 18.3727 191.127 18.5232L193.243 19.031C194.654 19.3696 195.697 19.915 196.375 20.6673C197.07 21.4008 197.418 22.2754 197.418 23.291C197.418 23.8929 197.277 24.4665 196.995 25.012C196.713 25.5574 196.309 26.0464 195.782 26.479C195.274 26.8928 194.654 27.2219 193.92 27.4664C193.205 27.7109 192.406 27.8332 191.522 27.8332Z" fill="black"/>
<path d="M9.53083 19.7867H0.5" stroke="#FF2225" stroke-width="3.28394"/>
</svg>
